<svg xmlns="http://www.w3.org/2000/svg" width="500" height="500" viewBox="0 0 500 500" version="1.1">
	<path d="M 314.091 139.250 C 308.367 143.238, 299.885 149.069, 295.245 152.209 L 286.806 157.917 272.653 152.365 C 264.869 149.310, 258.050 146.730, 257.500 146.630 C 256.950 146.529, 253.457 145.152, 249.738 143.569 C 246.019 141.985, 242.791 140.875, 242.565 141.102 C 242.338 141.329, 245.037 151.186, 248.563 163.007 C 252.089 174.828, 254.979 185.422, 254.987 186.549 C 255.004 189.278, 248.352 196.647, 236.607 206.908 C 231.313 211.532, 227.177 215.510, 227.414 215.747 C 227.832 216.165, 235.128 211.969, 247.502 204.195 C 255.838 198.957, 267.004 190.052, 266.982 188.659 C 266.971 188.021, 265.456 182.775, 263.613 177 C 261.771 171.225, 259.944 165.037, 259.552 163.250 C 258.908 160.307, 259.062 160, 261.179 160 C 262.465 160, 268.684 162.025, 275 164.500 C 281.316 166.975, 287.162 168.995, 287.992 168.990 C 288.821 168.984, 294.648 165.375, 300.941 160.970 C 307.233 156.565, 312.858 153.125, 313.441 153.327 C 314.144 153.570, 314.385 158.749, 314.158 168.732 L 313.816 183.770 321.658 189.775 C 333.869 199.124, 337.638 202.694, 336.500 203.832 C 335.950 204.383, 329.482 206.426, 322.128 208.372 C 314.773 210.319, 308.591 212.075, 308.392 212.275 C 308.192 212.475, 305.996 218.436, 303.512 225.522 C 301.028 232.607, 298.622 238.778, 298.165 239.235 C 296.463 240.937, 294.324 238.662, 287.604 228.005 C 283.811 221.990, 280.211 216.902, 279.604 216.698 C 278.997 216.493, 276.475 217.108, 274 218.064 C 254.928 225.428, 236.343 231.979, 222 236.391 C 208.152 240.651, 175.951 249.686, 169.744 251.053 C 166.578 251.751, 164.213 252.546, 164.488 252.822 C 164.764 253.097, 167.354 252.827, 170.244 252.222 C 173.135 251.617, 179.325 250.357, 184 249.423 C 205.893 245.046, 248.324 233.964, 266.209 227.951 C 272.430 225.859, 274.468 226.137, 276.166 229.310 C 277.293 231.416, 292.657 255.181, 297.620 262.497 L 300.332 266.493 304.054 255.497 C 312.031 231.932, 315.963 221.600, 317.222 220.896 C 318.864 219.977, 333.904 215.698, 348.982 211.860 C 355.296 210.252, 360.827 208.573, 361.272 208.128 C 361.717 207.683, 358.125 204.373, 353.290 200.772 C 340.325 191.115, 329.815 183.015, 327.137 180.617 L 324.774 178.500 325.479 156.500 C 325.867 144.400, 326.255 134.106, 326.342 133.625 C 326.784 131.177, 323.549 132.663, 314.091 139.250 M 196.070 158.911 L 189.808 166.877 179.404 166.288 C 173.682 165.964, 169 166.035, 169 166.447 C 169 166.859, 171.475 170.708, 174.500 175 C 179.665 182.329, 181.292 187.084, 179.098 188.439 C 178.603 188.746, 177.706 190.460, 177.106 192.248 L 176.016 195.500 178.938 192 C 180.546 190.075, 182.570 187.301, 183.437 185.835 C 184.925 183.318, 184.881 183.011, 182.647 180.335 C 179.231 176.242, 176.833 171.221, 177.960 170.524 C 178.485 170.201, 181.795 170.231, 185.316 170.591 L 191.719 171.247 195.438 166.374 C 201.627 158.263, 201.961 158.352, 205.269 169 C 206.038 171.475, 207.079 173.539, 207.583 173.586 C 208.714 173.693, 211.469 174.698, 215.820 176.590 C 220.140 178.469, 219.646 180.080, 213.500 184.172 L 208.500 187.500 208 194.670 C 207.725 198.613, 207.265 202.073, 206.978 202.358 C 206.691 202.644, 204.132 201.066, 201.290 198.851 C 195.366 194.235, 194.245 194.301, 188.447 199.612 C 186.288 201.590, 181.930 205.026, 178.761 207.249 C 175.592 209.471, 173 211.486, 173 211.726 C 173 212.356, 179.502 208.335, 186.812 203.183 C 194.151 198.013, 194.051 197.997, 203.816 205.893 C 207.290 208.702, 210.553 211, 211.066 211 C 211.585 211, 212 206.355, 212 200.547 C 212 190.850, 212.163 189.977, 214.250 188.482 C 215.488 187.595, 218.854 185.140, 221.731 183.025 C 224.608 180.910, 227.533 178.976, 228.231 178.727 C 230.333 177.977, 228.735 177.117, 218.943 173.734 L 209.585 170.500 208.187 166 C 207.418 163.525, 206.246 159.278, 205.583 156.563 C 204.920 153.847, 203.917 151.472, 203.355 151.285 C 202.793 151.098, 199.515 154.529, 196.070 158.911 M 184.794 271.475 C 172.434 274.878, 159 283.268, 159 287.584 C 159 288.913, 159.450 290, 160 290 C 160.550 290, 161 289.573, 161 289.051 C 161 285.508, 185.102 271.263, 189.002 272.501 C 190.101 272.849, 191 273.788, 191 274.587 C 191 278.044, 180.389 291.914, 170.525 301.350 C 164.281 307.323, 150.750 318.588, 148.250 319.895 C 145.761 321.196, 145.192 324, 147.417 324 C 148.196 324, 153.709 322.350, 159.667 320.332 C 166.770 317.928, 172.738 316.572, 177 316.396 C 181.710 316.201, 183.583 315.728, 183.801 314.679 C 184.227 312.630, 179.283 311.260, 174.500 312.101 C 172.300 312.487, 168.042 313.246, 165.038 313.786 L 159.576 314.768 163.038 311.779 C 164.942 310.135, 168.952 306.700, 171.949 304.145 C 187.368 291.001, 198 278.998, 198 274.734 C 198 270.287, 193.310 269.130, 184.794 271.475 M 345.958 279.593 C 344.331 283.219, 343 286.539, 343 286.971 C 343 288.730, 339.841 290.131, 332.863 291.466 C 328.813 292.241, 325.114 292.495, 324.643 292.030 C 324.168 291.563, 325.054 287.604, 326.628 283.161 C 329.480 275.108, 329.361 272.652, 326.213 274.637 C 323.299 276.476, 311.342 305.842, 312.393 308.581 C 312.692 309.362, 313.765 310, 314.776 310 C 316.122 310, 317.405 308.055, 319.558 302.750 L 322.501 295.500 329.594 294.083 C 340.098 291.984, 340.553 292.393, 337.340 301.063 C 335.137 307.004, 334.930 308.342, 336.098 309.082 C 336.869 309.570, 338.016 309.976, 338.647 309.985 C 339.927 310.002, 353 278.135, 353 274.997 C 353 273.653, 352.332 273, 350.958 273 C 349.408 273, 348.204 274.588, 345.958 279.593 M 233.092 278.611 C 231.962 280.046, 229.144 285.231, 226.829 290.131 C 224.514 295.031, 222.150 298.883, 221.575 298.692 C 221 298.500, 220.134 296.804, 219.650 294.922 C 218.048 288.695, 213.839 278, 212.991 278 C 211.262 278, 200 303.936, 200 307.916 C 200 308.944, 200.642 310.032, 201.427 310.334 C 202.476 310.736, 203.664 308.580, 205.912 302.191 C 209.406 292.262, 211.057 288.807, 212.540 288.317 C 213.113 288.128, 215.138 293.490, 217.040 300.232 C 219.596 309.289, 220.948 312.575, 222.214 312.812 C 223.398 313.034, 224.128 312.261, 224.574 310.316 C 226.197 303.232, 229.956 293.469, 235.642 281.563 C 238.423 275.740, 238.380 276, 236.573 276 C 235.787 276, 234.221 277.175, 233.092 278.611 M 257.763 285.750 C 244.876 298.836, 237.662 307.676, 238.368 309.517 C 239.309 311.968, 240.709 311.233, 244.107 306.500 C 247.134 302.285, 247.630 302.001, 251.920 302.015 C 257.744 302.035, 259.175 302.982, 260.491 307.691 C 261.231 310.337, 262.188 311.591, 263.624 311.799 C 265.551 312.078, 265.735 311.465, 266.318 302.799 C 266.663 297.685, 267.813 289.563, 268.874 284.750 C 270.679 276.558, 270.692 276, 269.083 276 C 268.138 276, 263.043 280.387, 257.763 285.750 M 281.663 280.357 C 280.727 281.511, 280.238 283.140, 280.577 283.978 C 280.916 284.815, 281.301 286.146, 281.433 286.936 C 281.670 288.363, 276.985 306.903, 275.541 310.250 C 274.299 313.129, 279.324 312.431, 287.365 308.608 C 297.741 303.674, 303.550 298.762, 306.994 292.011 C 310.512 285.116, 308.986 279.095, 303.679 278.934 C 302.480 278.898, 297.420 278.731, 292.433 278.563 C 284.229 278.288, 283.204 278.458, 281.663 280.357 M 290.283 284.059 C 287.606 284.875, 286.893 285.750, 286.031 289.270 C 285.461 291.596, 284.321 295.790, 283.498 298.588 C 281.539 305.242, 281.603 307, 283.804 307 C 286.179 307, 293.690 302.159, 297.646 298.078 C 301.434 294.171, 304.720 286.320, 303.202 284.802 C 301.740 283.340, 294.083 282.899, 290.283 284.059 M 256.038 292.250 C 253.268 295.137, 251.002 298.054, 251.001 298.731 C 251 300.288, 255.273 301.399, 258.322 300.634 C 260.145 300.177, 260.898 298.953, 261.822 294.949 C 264.076 285.185, 263.205 284.779, 256.038 292.250" stroke="none" fill="#000000" fill-rule="evenodd"/>
</svg>